<?xml version="1.0" standalone="no"?><!DOCTYPE svg PUBLIC "-//W3C//DTD SVG 1.1//EN" "http://www.w3.org/Graphics/SVG/1.1/DTD/svg11.dtd"><svg t="1580459204441" class="icon" viewBox="0 0 1024 1024" version="1.1" xmlns="http://www.w3.org/2000/svg" p-id="2207" xmlns:xlink="http://www.w3.org/1999/xlink" width="200" height="200"><defs><style type="text/css"></style></defs><path d="M170.666667 995.555556a28.444444 28.444444 0 0 0 28.444444 28.444444h28.444445a113.777778 113.777778 0 0 0 113.777777-113.777778v-113.777778a113.777778 113.777778 0 0 0-113.777777-113.777777H199.111111a28.444444 28.444444 0 0 0-28.444444 28.444444zM853.333333 995.555556a28.444444 28.444444 0 0 1-28.444444 28.444444h-28.444445a113.777778 113.777778 0 0 1-113.777777-113.777778v-113.777778a113.777778 113.777778 0 0 1 113.777777-113.777777h28.444445a28.444444 28.444444 0 0 1 28.444444 28.444444z" p-id="2208" fill="#ffffff"></path><path d="M512 0A512 512 0 0 0 0 512v483.555556a28.444444 28.444444 0 0 0 28.444444 28.444444h56.888889a28.444444 28.444444 0 0 0 28.444445-28.444444V512a398.222222 398.222222 0 0 1 796.444444 0v483.555556a28.444444 28.444444 0 0 0 28.444445 28.444444h56.888889a28.444444 28.444444 0 0 0 28.444444-28.444444V512A512 512 0 0 0 512 0z" p-id="2209" fill="#ffffff"></path></svg>